<svg width="16" height="16" viewBox="0 0 16 16" fill="none" xmlns="http://www.w3.org/2000/svg">
<path d="M15.0182 5.37941H13.2919H10.5422H9.91184L10.6201 6.08764V4.36135V1.61165V0.981321C10.6201 0.611263 10.2943 0.255386 9.91184 0.273095C9.52763 0.290801 9.20361 0.584715 9.20361 0.981321V2.70761V5.45731V6.08764C9.20361 6.47006 9.52763 6.79586 9.91184 6.79586H11.6381H14.3878H15.0182C15.3882 6.79586 15.7441 6.4701 15.7264 6.08764C15.7087 5.70343 15.4148 5.37941 15.0182 5.37941Z" fill="#25506B"/>
<path d="M14.7939 0.206481C14.6151 0.385306 14.4363 0.564139 14.2574 0.742952C13.829 1.17142 13.4005 1.59991 12.9702 2.03016C12.4515 2.54892 11.9327 3.06771 11.4139 3.58648L10.0736 4.92678C9.85584 5.14456 9.63454 5.3588 9.42028 5.58013C9.41673 5.58367 9.41496 5.58544 9.41142 5.58898C9.14938 5.85103 9.1299 6.33263 9.41142 6.59112C9.69471 6.85139 10.1338 6.87086 10.4136 6.59112C10.5924 6.41229 10.7712 6.23346 10.95 6.05465C11.3785 5.62618 11.807 5.19768 12.2372 4.76744C12.756 4.24868 13.2748 3.72988 13.7936 3.21112C14.2397 2.76495 14.6859 2.31877 15.1339 1.87082C15.3516 1.65304 15.5729 1.43879 15.7872 1.21747C15.7907 1.21393 15.7925 1.21216 15.7961 1.20862C16.0581 0.946571 16.0776 0.464971 15.7961 0.206481C15.5128 -0.0537937 15.0737 -0.0732679 14.7939 0.206481Z" fill="#25506B"/>
<path d="M0.981321 10.6206H2.70761H5.45731H6.08764L5.37941 9.91233V11.6386V14.3883V15.0186C5.37941 15.3887 5.70518 15.7446 6.08764 15.7269C6.47184 15.7092 6.79586 15.4153 6.79586 15.0186V13.2924V10.5427V9.91233C6.79586 9.5299 6.47184 9.2041 6.08764 9.2041H4.36135H1.61165H0.981321C0.611263 9.2041 0.255386 9.52987 0.273095 9.91233C0.290801 10.2965 0.584715 10.6206 0.981321 10.6206Z" fill="#25506B"/>
<path d="M1.20604 15.7942C1.38486 15.6154 1.5637 15.4366 1.74251 15.2578C2.17097 14.8293 2.59947 14.4008 3.02972 13.9706C3.54848 13.4518 4.06727 12.933 4.58603 12.4142L5.92633 11.0739C6.14411 10.8562 6.36542 10.6419 6.57968 10.4206C6.58322 10.4171 6.585 10.4153 6.58854 10.4117C6.85058 10.1497 6.87006 9.6681 6.58854 9.40961C6.30525 9.14933 5.86616 9.12986 5.5864 9.40961C5.40758 9.58843 5.22874 9.76726 5.04993 9.94608C4.62147 10.3745 4.19297 10.803 3.76272 11.2333C3.24396 11.752 2.72517 12.2708 2.20641 12.7896C1.76023 13.2358 1.31406 13.6819 0.866104 14.1299C0.648323 14.3477 0.42702 14.5619 0.212755 14.7833C0.209214 14.7868 0.207443 14.7886 0.203902 14.7921C-0.0581431 15.0541 -0.0776173 15.5357 0.203902 15.7942C0.487192 16.0545 0.926276 16.074 1.20604 15.7942Z" fill="#25506B"/>
<path d="M5.37844 0.981321V2.70761V5.45731V6.08764L6.08666 5.37941H4.36037H1.61067H0.980345C0.610287 5.37941 0.254409 5.70518 0.272119 6.08764C0.289825 6.47184 0.583738 6.79586 0.980345 6.79586H2.70663H5.45633H6.08666C6.46909 6.79586 6.79489 6.47184 6.79489 6.08764V4.36135V1.61165V0.981321C6.79489 0.611263 6.46912 0.255386 6.08666 0.273095C5.70245 0.290801 5.37844 0.584715 5.37844 0.981321Z" fill="#25506B"/>
<path d="M0.205992 1.20604C0.384818 1.38486 0.56365 1.5637 0.742463 1.74251C1.17093 2.17097 1.59943 2.59947 2.02967 3.02972C2.54843 3.54848 3.06723 4.06727 3.58599 4.58603L4.92629 5.92633C5.14407 6.14412 5.35832 6.36542 5.57964 6.57968C5.58318 6.58322 5.58495 6.58499 5.58849 6.58854C5.85054 6.85058 6.33214 6.87006 6.59063 6.58854C6.8509 6.30525 6.87038 5.86616 6.59063 5.5864C6.4118 5.40757 6.23297 5.22874 6.05416 5.04993C5.62569 4.62147 5.1972 4.19297 4.76695 3.76272C4.24819 3.24396 3.72939 2.72517 3.21063 2.20641C2.76446 1.76023 2.31828 1.31406 1.87033 0.866104C1.65255 0.648323 1.4383 0.42702 1.21698 0.212755C1.21344 0.209214 1.21167 0.207443 1.20813 0.203902C0.946083 -0.0581431 0.464483 -0.0776173 0.205992 0.203902C-0.054282 0.487192 -0.0737562 0.926276 0.205992 1.20604Z" fill="#25506B"/>
<path d="M10.6201 15.0177V13.2914V10.5417V9.91135L9.91184 10.6196H11.6381H14.3878H15.0182C15.3882 10.6196 15.7441 10.2938 15.7264 9.91135C15.7087 9.52714 15.4148 9.20312 15.0182 9.20312H13.2919H10.5422H9.91184C9.52941 9.20312 9.20361 9.52714 9.20361 9.91135V11.6376V14.3873V15.0177C9.20361 15.3877 9.52938 15.7436 9.91184 15.7259C10.296 15.7082 10.6201 15.4143 10.6201 15.0177Z" fill="#25506B"/>
<path d="M15.794 14.7934C15.6152 14.6146 15.4363 14.4358 15.2575 14.257C14.8291 13.8285 14.4006 13.4 13.9703 12.9698C13.4516 12.451 12.9328 11.9322 12.414 11.4134L11.0737 10.0731C10.8559 9.85535 10.6417 9.63405 10.4203 9.41979C10.4168 9.41625 10.415 9.41447 10.4115 9.41093C10.1495 9.14889 9.66785 9.12941 9.40936 9.41093C9.14909 9.69422 9.12961 10.1333 9.40936 10.4131C9.58819 10.5919 9.76702 10.7707 9.94583 10.9495C10.3743 11.378 10.8028 11.8065 11.233 12.2367C11.7518 12.7555 12.2706 13.2743 12.7894 13.7931C13.2355 14.2392 13.6817 14.6854 14.1297 15.1334C14.3474 15.3511 14.5617 15.5724 14.783 15.7867C14.7865 15.7903 14.7883 15.792 14.7919 15.7956C15.0539 16.0576 15.5355 16.0771 15.794 15.7956C16.0543 15.5123 16.0737 15.0732 15.794 14.7934Z" fill="#25506B"/>
</svg>
