<?xml version="1.0" encoding="utf-8"?>
<!-- Generator: Adobe Illustrator 26.0.1, SVG Export Plug-In . SVG Version: 6.00 Build 0)  -->
<svg version="1.1" id="Layer_1" xmlns="http://www.w3.org/2000/svg" xmlns:xlink="http://www.w3.org/1999/xlink" x="0px" y="0px"
	 viewBox="0 0 35 35" style="enable-background:new 0 0 35 35;" xml:space="preserve">
<style type="text/css">
	.st0{fill:#FFFFFF;}
</style>
<g>
	<path class="st0" d="M23.6,21.1c0.3,0.2,0.5,0.6,0.5,1v0.6c0,1.7-1.4,3.1-3.1,3.1h-8.5l-5,5v-5c-1.7-0.1-3-1.4-3-3.1v-7.3
		c0-1.7,1.4-3.1,3.1-3.1h1.7v2.2c0,2.8,2.3,5.1,5.1,5.1h7.3L23.6,21.1z M27.5,4.3H14.1c-1.7,0-3.1,1.4-3.1,3.1v7.3
		c0,1.7,1.4,3.1,3.1,3.1h8.5l5,4.4v-4.4c1.7-0.1,3-1.4,3-3.1V7.4C30.6,5.7,29.2,4.3,27.5,4.3z"/>
</g>
</svg>
