<svg width="10" height="14" viewBox="0 0 10 14" fill="none" xmlns="http://www.w3.org/2000/svg">
<path fill-rule="evenodd" clip-rule="evenodd" d="M0.108401 11.7996L1.81094 10.1836C1.8437 10.1512 1.88304 10.1254 1.92659 10.1078C1.97014 10.0901 2.01699 10.0811 2.06434 10.0811C2.11168 10.0811 2.15853 10.0901 2.20208 10.1078C2.24563 10.1254 2.28497 10.1512 2.31774 10.1836L4.02027 11.7996C4.05444 11.8307 4.08164 11.868 4.10021 11.9093C4.11879 11.9507 4.12837 11.9951 4.12837 12.0401C4.12837 12.085 4.11879 12.1295 4.10021 12.1708C4.08164 12.2121 4.05444 12.2495 4.02027 12.2806L2.31642 13.8965C2.28375 13.9291 2.24444 13.9551 2.20088 13.9728C2.15732 13.9905 2.11041 13.9997 2.06302 13.9997C2.01562 13.9997 1.96871 13.9905 1.92515 13.9728C1.88159 13.9551 1.84228 13.9291 1.80962 13.8965L0.108401 12.2906C0.0742032 12.2584 0.0470631 12.22 0.0285429 12.1778C0.0100228 12.1355 0.000488281 12.0902 0.000488281 12.0445C0.000488281 11.9987 0.0100228 11.9534 0.0285429 11.9112C0.0470631 11.8689 0.0742032 11.8306 0.108401 11.7983V11.7996Z" fill="#1486B8"/>
<path fill-rule="evenodd" clip-rule="evenodd" d="M2.75128 9.28443L4.45382 7.66851C4.48658 7.63608 4.52592 7.61027 4.56947 7.59264C4.61302 7.57501 4.65987 7.56592 4.70722 7.56592C4.75456 7.56592 4.80141 7.57501 4.84496 7.59264C4.88851 7.61027 4.92785 7.63608 4.96062 7.66851L6.66315 9.28443C6.69733 9.31553 6.72452 9.35287 6.74309 9.3942C6.76167 9.43554 6.77125 9.48001 6.77125 9.52494C6.77125 9.56988 6.76167 9.61435 6.74309 9.65568C6.72452 9.69701 6.69733 9.73435 6.66315 9.76545L4.95534 11.3876C4.92267 11.4202 4.88336 11.4462 4.8398 11.4639C4.79624 11.4816 4.74934 11.4908 4.70194 11.4908C4.65454 11.4908 4.60763 11.4816 4.56407 11.4639C4.52051 11.4462 4.4812 11.4202 4.44854 11.3876L2.75128 9.77171C2.68382 9.70679 2.646 9.61926 2.646 9.52807C2.646 9.43689 2.68382 9.34936 2.75128 9.28443Z" fill="#1486B8"/>
<path fill-rule="evenodd" clip-rule="evenodd" d="M0.108401 6.75912L1.81094 5.14319C1.8436 5.1106 1.88291 5.08465 1.92647 5.06692C1.97003 5.04918 2.01694 5.04004 2.06434 5.04004C2.11173 5.04004 2.15864 5.04918 2.2022 5.06692C2.24576 5.08465 2.28507 5.1106 2.31774 5.14319L4.03347 6.75912C4.06781 6.79012 4.09515 6.82743 4.11384 6.86878C4.13252 6.91012 4.14215 6.95464 4.14215 6.99962C4.14215 7.04461 4.13252 7.08913 4.11384 7.13047C4.09515 7.17182 4.06781 7.20913 4.03347 7.24013L2.33093 8.86858C2.29817 8.90101 2.25883 8.92682 2.21528 8.94446C2.17173 8.96209 2.12488 8.97118 2.07753 8.97118C2.03019 8.97118 1.98334 8.96209 1.93979 8.94446C1.89624 8.92682 1.8569 8.90101 1.82413 8.86858L0.108401 7.25266C0.0742032 7.22041 0.0470631 7.18206 0.028543 7.13982C0.0100228 7.09757 0.000488281 7.05227 0.000488281 7.00651C0.000488281 6.96076 0.0100228 6.91545 0.028543 6.87321C0.0470631 6.83097 0.0742032 6.79262 0.108401 6.76037V6.75912Z" fill="#1486B8"/>
<path fill-rule="evenodd" clip-rule="evenodd" d="M2.75049 4.23861L4.45303 2.62269C4.48569 2.59009 4.525 2.56414 4.56856 2.54641C4.61212 2.52868 4.65903 2.51953 4.70643 2.51953C4.75382 2.51953 4.80073 2.52868 4.84429 2.54641C4.88785 2.56414 4.92716 2.59009 4.95983 2.62269L6.66236 4.23861C6.69653 4.26971 6.72373 4.30705 6.7423 4.34838C6.76088 4.38971 6.77045 4.43418 6.77045 4.47912C6.77045 4.52405 6.76088 4.56852 6.7423 4.60986C6.72373 4.65119 6.69653 4.68853 6.66236 4.71963L4.95455 6.34557C4.92188 6.37816 4.88257 6.40411 4.83901 6.42185C4.79545 6.43958 4.74855 6.44872 4.70115 6.44872C4.65375 6.44872 4.60684 6.43958 4.56328 6.42185C4.51972 6.40411 4.48042 6.37816 4.44775 6.34557L2.75049 4.7309C2.71629 4.69865 2.68915 4.6603 2.67063 4.61806C2.65211 4.57581 2.64258 4.53051 2.64258 4.48475C2.64258 4.439 2.65211 4.3937 2.67063 4.35145C2.68915 4.30921 2.71629 4.27086 2.75049 4.23861Z" fill="#1486B8"/>
<path fill-rule="evenodd" clip-rule="evenodd" d="M0.108025 1.71717L1.81056 0.102499C1.84321 0.0701003 1.88244 0.0443149 1.92588 0.0266985C1.96931 0.00908212 2.01606 0 2.0633 0C2.11054 0 2.15728 0.00908212 2.20072 0.0266985C2.24416 0.0443149 2.28339 0.0701003 2.31604 0.102499L4.01857 1.71717C4.05275 1.74827 4.07994 1.78561 4.09852 1.82694C4.11709 1.86827 4.12667 1.91274 4.12667 1.95768C4.12667 2.00261 4.11709 2.04708 4.09852 2.08842C4.07994 2.12975 4.05275 2.16709 4.01857 2.19819L2.31604 3.82538C2.28337 3.85797 2.24406 3.88393 2.2005 3.90166C2.15694 3.91939 2.11004 3.92854 2.06264 3.92854C2.01524 3.92854 1.96834 3.91939 1.92478 3.90166C1.88122 3.88393 1.84191 3.85797 1.80924 3.82538L0.108025 2.21071C0.0737864 2.17836 0.0466186 2.1399 0.0280807 2.09755C0.00954285 2.0552 0 2.0098 0 1.96394C0 1.91808 0.00954285 1.87268 0.0280807 1.83033C0.0466186 1.78798 0.0737864 1.74952 0.108025 1.71717Z" fill="#1486B8"/>
<path fill-rule="evenodd" clip-rule="evenodd" d="M5.39436 6.75912L7.09689 5.14319C7.12956 5.1106 7.16887 5.08465 7.21243 5.06692C7.25599 5.04918 7.30289 5.04004 7.35029 5.04004C7.39769 5.04004 7.44459 5.04918 7.48815 5.06692C7.53171 5.08465 7.57102 5.1106 7.60369 5.14319L9.31018 6.75912C9.34452 6.79012 9.37187 6.82743 9.39055 6.86878C9.40923 6.91012 9.41887 6.95464 9.41887 6.99962C9.41887 7.04461 9.40923 7.08913 9.39055 7.13047C9.37187 7.17182 9.34452 7.20913 9.31018 7.24013L7.61953 8.86858C7.58676 8.90101 7.54742 8.92682 7.50387 8.94446C7.46033 8.96209 7.41347 8.97118 7.36613 8.97118C7.31878 8.97118 7.27193 8.96209 7.22838 8.94446C7.18483 8.92682 7.14549 8.90101 7.11273 8.86858L5.397 7.25266C5.33387 7.18455 5.29883 7.09707 5.29834 7.00636C5.29786 6.91565 5.33196 6.82783 5.39436 6.75912Z" fill="#1486B8"/>
</svg>
