<svg width="28" height="36" viewBox="0 0 28 36" fill="none" xmlns="http://www.w3.org/2000/svg">
<path d="M0 3C0 1.34314 1.34315 0 3 0H25C26.6569 0 28 1.34315 28 3V36L20.2159 29.1665C19.6685 28.686 18.965 28.4211 18.2367 28.4211H3C1.34315 28.4211 0 27.0779 0 25.4211V3Z" fill="white"/>
<path fill-rule="evenodd" clip-rule="evenodd" d="M8.15439 20.8552L10.5863 18.5469C10.6331 18.5006 10.6893 18.4637 10.7515 18.4386C10.8137 18.4134 10.8807 18.4004 10.9483 18.4004C11.0159 18.4004 11.0828 18.4134 11.145 18.4386C11.2073 18.4637 11.2634 18.5006 11.3102 18.5469L13.7422 20.8552C13.791 20.8996 13.8298 20.9529 13.8564 21.012C13.8829 21.071 13.8966 21.1345 13.8966 21.1987C13.8966 21.2629 13.8829 21.3264 13.8564 21.3854C13.8298 21.4445 13.791 21.4978 13.7422 21.5422L11.3084 23.8505C11.2617 23.897 11.2056 23.9341 11.1433 23.9594C11.0811 23.9847 11.0141 23.9978 10.9464 23.9978C10.8787 23.9978 10.8117 23.9847 10.7495 23.9594C10.6873 23.9341 10.6311 23.897 10.5844 23.8505L8.15439 21.5566C8.10554 21.5105 8.06677 21.4557 8.04032 21.3954C8.01386 21.335 8.00024 21.2703 8.00024 21.205C8.00024 21.1396 8.01386 21.0749 8.04032 21.0145C8.06677 20.9542 8.10554 20.8994 8.15439 20.8534V20.8552Z" fill="#1587B9"/>
<path fill-rule="evenodd" clip-rule="evenodd" d="M11.9304 17.2624L14.3624 14.9542C14.4092 14.9078 14.4654 14.871 14.5276 14.8458C14.5898 14.8206 14.6567 14.8076 14.7243 14.8076C14.7919 14.8076 14.8589 14.8206 14.9211 14.8458C14.9833 14.871 15.0395 14.9078 15.0863 14.9542L17.5182 17.2624C17.567 17.3068 17.6059 17.3601 17.6324 17.4192C17.6589 17.4782 17.6726 17.5417 17.6726 17.6059C17.6726 17.6701 17.6589 17.7336 17.6324 17.7927C17.6059 17.8517 17.567 17.9051 17.5182 17.9495L15.0787 20.2666C15.0321 20.3132 14.9759 20.3503 14.9137 20.3756C14.8515 20.4009 14.7845 20.414 14.7168 20.414C14.6491 20.414 14.5821 20.4009 14.5199 20.3756C14.4576 20.3503 14.4015 20.3132 14.3548 20.2666L11.9304 17.9584C11.8341 17.8657 11.78 17.7407 11.78 17.6104C11.78 17.4801 11.8341 17.3551 11.9304 17.2624Z" fill="#1587B9"/>
<path fill-rule="evenodd" clip-rule="evenodd" d="M8.15439 13.6548L10.5863 11.3466C10.633 11.3 10.6891 11.2629 10.7514 11.2376C10.8136 11.2123 10.8806 11.1992 10.9483 11.1992C11.016 11.1992 11.083 11.2123 11.1452 11.2376C11.2074 11.2629 11.2636 11.3 11.3102 11.3466L13.761 13.6548C13.8101 13.6991 13.8491 13.7524 13.8758 13.8114C13.9025 13.8705 13.9163 13.9341 13.9163 13.9983C13.9163 14.0626 13.9025 14.1262 13.8758 14.1852C13.8491 14.2443 13.8101 14.2976 13.761 14.3419L11.3291 16.668C11.2823 16.7143 11.2261 16.7512 11.1639 16.7764C11.1017 16.8016 11.0348 16.8145 10.9671 16.8145C10.8995 16.8145 10.8326 16.8016 10.7704 16.7764C10.7082 16.7512 10.652 16.7143 10.6052 16.668L8.15439 14.3598C8.10554 14.3137 8.06677 14.2589 8.04032 14.1986C8.01386 14.1382 8.00024 14.0735 8.00024 14.0082C8.00024 13.9428 8.01386 13.8781 8.04032 13.8178C8.06677 13.7574 8.10554 13.7026 8.15439 13.6566V13.6548Z" fill="#1587B9"/>
<path fill-rule="evenodd" clip-rule="evenodd" d="M11.9304 10.0552L14.3623 7.74696C14.409 7.7004 14.4651 7.66333 14.5274 7.638C14.5896 7.61267 14.6566 7.59961 14.7243 7.59961C14.792 7.59961 14.859 7.61267 14.9212 7.638C14.9834 7.66333 15.0396 7.7004 15.0863 7.74696L17.5182 10.0552C17.567 10.0996 17.6058 10.1529 17.6324 10.212C17.6589 10.271 17.6726 10.3345 17.6726 10.3987C17.6726 10.4629 17.6589 10.5264 17.6324 10.5855C17.6058 10.6445 17.567 10.6978 17.5182 10.7423L15.0787 13.0648C15.032 13.1114 14.9759 13.1484 14.9137 13.1738C14.8514 13.1991 14.7845 13.2121 14.7167 13.2121C14.649 13.2121 14.582 13.1991 14.5198 13.1738C14.4576 13.1484 14.4014 13.1114 14.3548 13.0648L11.9304 10.7584C11.8815 10.7123 11.8428 10.6575 11.8163 10.5972C11.7899 10.5368 11.7762 10.4721 11.7762 10.4068C11.7762 10.3414 11.7899 10.2767 11.8163 10.2164C11.8428 10.156 11.8815 10.1012 11.9304 10.0552Z" fill="#1587B9"/>
<path fill-rule="evenodd" clip-rule="evenodd" d="M8.1543 6.45284L10.5862 4.14641C10.6329 4.10013 10.6889 4.0633 10.751 4.03814C10.813 4.01297 10.8798 4 10.9473 4C11.0147 4 11.0815 4.01297 11.1436 4.03814C11.2056 4.0633 11.2616 4.10013 11.3083 4.14641L13.7402 6.45284C13.789 6.49726 13.8279 6.5506 13.8544 6.60964C13.8809 6.66867 13.8946 6.7322 13.8946 6.79639C13.8946 6.86057 13.8809 6.9241 13.8544 6.98313C13.8279 7.04217 13.789 7.09551 13.7402 7.13993L11.3083 9.46425C11.2616 9.51081 11.2055 9.54788 11.1432 9.57321C11.081 9.59854 11.014 9.6116 10.9463 9.6116C10.8786 9.6116 10.8116 9.59854 10.7494 9.57321C10.6872 9.54788 10.631 9.51081 10.5844 9.46425L8.1543 7.15783C8.1054 7.11161 8.06659 7.05668 8.04011 6.99619C8.01363 6.93569 8 6.87084 8 6.80533C8 6.73983 8.01363 6.67497 8.04011 6.61448C8.06659 6.55399 8.1054 6.49906 8.1543 6.45284Z" fill="#1587B9"/>
<path fill-rule="evenodd" clip-rule="evenodd" d="M15.7064 13.6548L18.1383 11.3466C18.185 11.3 18.2411 11.2629 18.3033 11.2376C18.3656 11.2123 18.4326 11.1992 18.5003 11.1992C18.568 11.1992 18.635 11.2123 18.6972 11.2376C18.7594 11.2629 18.8156 11.3 18.8622 11.3466L21.2998 13.6548C21.3489 13.6991 21.3879 13.7524 21.4146 13.8114C21.4413 13.8705 21.4551 13.9341 21.4551 13.9983C21.4551 14.0626 21.4413 14.1262 21.4146 14.1852C21.3879 14.2443 21.3489 14.2976 21.2998 14.3419L18.8848 16.668C18.838 16.7143 18.7818 16.7512 18.7196 16.7764C18.6574 16.8016 18.5905 16.8145 18.5229 16.8145C18.4553 16.8145 18.3883 16.8016 18.3261 16.7764C18.2639 16.7512 18.2077 16.7143 18.1609 16.668L15.7101 14.3598C15.62 14.2625 15.5699 14.1375 15.5692 14.0079C15.5685 13.8784 15.6172 13.7529 15.7064 13.6548Z" fill="#1587B9"/>
</svg>
